<svg id="Layer_1" data-name="Layer 1" xmlns="http://www.w3.org/2000/svg" viewBox="0 0 1920 1080"><defs><style>.cls-1{fill:#723287;}.cls-2{fill:none;}.cls-2,.cls-3{stroke:#723287;stroke-miterlimit:10;stroke-width:3px;}.cls-3{fill:#fff;}</style></defs><title>background</title><path class="cls-1" d="M1724.67,364v6a9,9,0,0,1-9,9H1405a9,9,0,0,1-9-9v-6h328.67m3-3H1393v9a12,12,0,0,0,12,12h310.67a12,12,0,0,0,12-12v-9Z"/><path class="cls-1" d="M1714.65,382.88V988H1406V382.88h308.64m3-3H1403V991h314.64V379.88Z"/><path class="cls-1" d="M1490.83,413.34v80.53H1431V413.34h59.79m3-3H1428v86.53h65.79V410.34Z"/><path class="cls-1" d="M1493.69,497.72v1.15h-65.51v-1.15h65.51m3-3h-71.51v7.15h71.51v-7.15Z"/><polygon class="cls-1" points="1496.69 406.77 1425.18 406.77 1425.18 412.49 1496.69 412.49 1496.69 406.77 1496.69 406.77"/><path class="cls-1" d="M1588.44,413.34v80.53h-59.79V413.34h59.79m3-3h-65.79v86.53h65.79V410.34Z"/><path class="cls-1" d="M1591.3,497.72v1.15h-65.51v-1.15h65.51m3-3h-71.51v7.15h71.51v-7.15Z"/><polygon class="cls-1" points="1594.3 406.77 1522.79 406.77 1522.79 412.49 1594.3 412.49 1594.3 406.77 1594.3 406.77"/><path class="cls-1" d="M1686.05,413.34v80.53h-59.79V413.34h59.79m3-3h-65.79v86.53h65.79V410.34Z"/><path class="cls-1" d="M1688.91,497.72v1.15H1623.4v-1.15h65.51m3-3H1620.4v7.15h71.51v-7.15Z"/><polygon class="cls-1" points="1691.91 406.77 1620.4 406.77 1620.4 412.49 1691.91 412.49 1691.91 406.77 1691.91 406.77"/><path class="cls-1" d="M1490.83,563.51V644H1431V563.51h59.79m3-3H1428V647h65.79V560.51Z"/><path class="cls-1" d="M1493.69,647.89V649h-65.51v-1.15h65.51m3-3h-71.51V652h71.51v-7.15Z"/><polygon class="cls-1" points="1496.69 556.94 1425.18 556.94 1425.18 562.66 1496.69 562.66 1496.69 556.94 1496.69 556.94"/><path class="cls-1" d="M1588.44,563.51V644h-59.79V563.51h59.79m3-3h-65.79V647h65.79V560.51Z"/><path class="cls-1" d="M1591.3,647.89V649h-65.51v-1.15h65.51m3-3h-71.51V652h71.51v-7.15Z"/><polygon class="cls-1" points="1594.3 556.94 1522.79 556.94 1522.79 562.66 1594.3 562.66 1594.3 556.94 1594.3 556.94"/><path class="cls-1" d="M1686.05,563.51V644h-59.79V563.51h59.79m3-3h-65.79V647h65.79V560.51Z"/><path class="cls-1" d="M1688.91,647.89V649H1623.4v-1.15h65.51m3-3H1620.4V652h71.51v-7.15Z"/><polygon class="cls-1" points="1691.91 556.94 1620.4 556.94 1620.4 562.66 1691.91 562.66 1691.91 556.94 1691.91 556.94"/><path class="cls-1" d="M1490.83,713.68v80.53H1431V713.68h59.79m3-3H1428v86.53h65.79V710.68Z"/><path class="cls-1" d="M1493.69,798.06v1.15h-65.51v-1.15h65.51m3-3h-71.51v7.15h71.51v-7.15Z"/><polygon class="cls-1" points="1496.69 707.11 1425.18 707.11 1425.18 712.83 1496.69 712.83 1496.69 707.11 1496.69 707.11"/><path class="cls-1" d="M1588.44,713.68v80.53h-59.79V713.68h59.79m3-3h-65.79v86.53h65.79V710.68Z"/><path class="cls-1" d="M1591.3,798.06v1.15h-65.51v-1.15h65.51m3-3h-71.51v7.15h71.51v-7.15Z"/><polygon class="cls-1" points="1594.3 707.11 1522.79 707.11 1522.79 712.83 1594.3 712.83 1594.3 707.11 1594.3 707.11"/><path class="cls-1" d="M1686.05,713.68v80.53h-59.79V713.68h59.79m3-3h-65.79v86.53h65.79V710.68Z"/><path class="cls-1" d="M1688.91,798.06v1.15H1623.4v-1.15h65.51m3-3H1620.4v7.15h71.51v-7.15Z"/><polygon class="cls-1" points="1691.91 707.11 1620.4 707.11 1620.4 712.83 1691.91 712.83 1691.91 707.11 1691.91 707.11"/><path class="cls-1" d="M1518.23,867.43V988h-54.07V867.43h54.07m3-3h-60.07V991h60.07V864.43Z"/><path class="cls-1" d="M1576.15,867.43V988h-54.07V867.43h54.07m3-3h-60.07V991h60.07V864.43Z"/><path class="cls-1" d="M1641,867.43V946h-61.92V867.43H1641m3-3h-67.92V949H1644V864.43Z"/><path class="cls-1" d="M1647,858a7,7,0,0,1,7,6.57H1451.08a7,7,0,0,1,7-6.57H1647m0-3H1458.06a10,10,0,0,0-10,10v2.57H1657V865a10,10,0,0,0-10-10Z"/><line class="cls-2" x1="1403.37" y1="530.12" x2="1717.3" y2="530.12"/><line class="cls-2" x1="1403.37" y1="681.72" x2="1717.3" y2="681.72"/><line class="cls-2" x1="1403.37" y1="831.72" x2="1717.3" y2="831.72"/><line class="cls-2" x1="1921" y1="989.5" x2="-7" y2="989.5"/><path class="cls-2" d="M1210.61,730.68c-4.14-9.7-15.41-9.88-19.76-.33C1169.91,776.29,1129.5,882,1201,882,1267.78,882,1230.26,776.79,1210.61,730.68Z"/><polyline class="cls-2" points="1199.5 781.5 1199.5 864.43 1199.5 877.33 1199.5 989.5"/><polyline class="cls-2" points="1214.5 850.5 1199.5 867.57 1186.5 852.5"/><line class="cls-2" x1="1199.5" y1="837.57" x2="1186.5" y2="822.5"/><line class="cls-2" x1="1199.5" y1="807.57" x2="1186.5" y2="792.5"/><line class="cls-2" x1="1214.5" y1="820.5" x2="1199.5" y2="837.57"/><line class="cls-2" x1="1214.5" y1="790.5" x2="1199.5" y2="807.57"/><path class="cls-2" d="M1210.61,730.68c-4.14-9.7-15.41-9.88-19.76-.33C1169.91,776.29,1129.5,882,1201,882,1267.78,882,1230.26,776.79,1210.61,730.68Z"/><polyline class="cls-2" points="1199.5 781.5 1199.5 864.43 1199.5 877.33 1199.5 989.5"/><polyline class="cls-2" points="1214.5 850.5 1199.5 867.57 1186.5 852.5"/><line class="cls-2" x1="1199.5" y1="837.57" x2="1186.5" y2="822.5"/><line class="cls-2" x1="1199.5" y1="807.57" x2="1186.5" y2="792.5"/><line class="cls-2" x1="1214.5" y1="820.5" x2="1199.5" y2="837.57"/><line class="cls-2" x1="1214.5" y1="790.5" x2="1199.5" y2="807.57"/><path class="cls-2" d="M1291,780.06c-3.34-7.84-12.46-8-16-.26-17,37.17-49.65,122.71,8.19,122.71C1337.29,902.51,1306.93,817.38,1291,780.06Z"/><polyline class="cls-2" points="1282.04 821.19 1282.04 888.29 1282.04 898.74 1282.04 989.5"/><polyline class="cls-2" points="1294.17 877.02 1282.04 890.84 1271.52 878.64"/><line class="cls-2" x1="1282.04" y1="866.56" x2="1271.52" y2="854.37"/><line class="cls-2" x1="1282.04" y1="842.29" x2="1271.52" y2="830.09"/><line class="cls-2" x1="1294.17" y1="852.75" x2="1282.04" y2="866.56"/><line class="cls-2" x1="1294.17" y1="828.47" x2="1282.04" y2="842.29"/><path class="cls-2" d="M1131.55,803.11c-3-7-11.09-7.11-14.22-.24-15.08,33.09-44.19,109.21,7.29,109.21C1172.72,912.08,1145.71,836.32,1131.55,803.11Z"/><polyline class="cls-2" points="1123.55 839.71 1123.55 899.43 1123.55 908.72 1123.55 989.5"/><polyline class="cls-2" points="1134.36 889.4 1123.55 901.7 1114.19 890.84"/><line class="cls-2" x1="1123.55" y1="880.09" x2="1114.19" y2="869.24"/><line class="cls-2" x1="1123.55" y1="858.49" x2="1114.19" y2="847.63"/><line class="cls-2" x1="1134.36" y1="867.8" x2="1123.55" y2="880.09"/><line class="cls-2" x1="1134.36" y1="846.19" x2="1123.55" y2="858.49"/><path class="cls-2" d="M1804.61,729.18c-4.14-9.7-15.41-9.88-19.76-.33C1763.91,774.79,1723.5,880.5,1795,880.5,1861.78,880.5,1824.26,775.29,1804.61,729.18Z"/><polyline class="cls-2" points="1793.5 780 1793.5 862.93 1793.5 875.83 1793.5 988"/><polyline class="cls-2" points="1808.5 849 1793.5 866.07 1780.5 851"/><line class="cls-2" x1="1793.5" y1="836.07" x2="1780.5" y2="821"/><line class="cls-2" x1="1793.5" y1="806.07" x2="1780.5" y2="791"/><line class="cls-2" x1="1808.5" y1="819" x2="1793.5" y2="836.07"/><line class="cls-2" x1="1808.5" y1="789" x2="1793.5" y2="806.07"/><path class="cls-2" d="M1390.1,989.5a14.9,14.9,0,0,0,4.19-29.2l-.09-.62a11.68,11.68,0,0,0-9.36-18.68,11.4,11.4,0,0,0-2.76.33,26,26,0,0,0-39.61,22.17,25.41,25.41,0,0,0,.18,3,11.69,11.69,0,0,0,3,23Z"/><path class="cls-3" d="M1421.35,964.52a7.49,7.49,0,0,0-13.7-2.5A10,10,0,0,0,1395,974.63a11.36,11.36,0,0,0-.51,3.37,11.5,11.5,0,0,0,11.5,11.5h15c6.35,0,11.5-7.15,11.5-13.5A11.49,11.49,0,0,0,1421.35,964.52Z"/><path class="cls-3" d="M1764.9,988.5a14.9,14.9,0,0,1-4.19-29.2l.09-.62a11.68,11.68,0,0,1,9.36-18.68,11.4,11.4,0,0,1,2.76.33,26,26,0,0,1,39.61,22.17,25.41,25.41,0,0,1-.18,3,11.69,11.69,0,0,1-3,23Z"/></svg>
