<svg id="Layer_1" data-name="Layer 1" xmlns="http://www.w3.org/2000/svg" viewBox="0 0 400 244.67"><defs><style>.cls-1{fill:#232323;}.cls-2{fill:#a452bf;}.cls-3{fill:#60366e;}.cls-4{fill:#af7ebf;}.cls-5{fill:#2a1730;}.cls-6{fill:#381f40;}.cls-7{fill:#45274f;}.cls-8{fill:#522e5e;}.cls-9{fill:#ad74bf;}.cls-10{fill:#aa69bf;}.cls-11{fill:#a75ebf;}.cls-12{fill:#723287;}</style></defs><title>Logo Light</title><path class="cls-1" d="M75.06,196.9H56.86l-3.39,9.57h-11l17.74-47.09H72.33l17.54,47.09H78.44Zm-14.75-9.56H71.74l-5.65-16.27Z"/><path class="cls-1" d="M93.24,219.09V173.46H103v3.38c1.4-2.12,5-4.18,9.7-4.18,9.56,0,15.34,7.31,15.34,17.2,0,10.1-6.51,17.34-15.74,17.34-4.25,0-7.44-1.46-9-3.32v15.21Zm17.4-37.33c-3.92,0-7.44,2.66-7.44,8.17s3.52,8.24,7.44,8.24,7.51-2.73,7.51-8.24S114.63,181.76,110.64,181.76Z"/><path class="cls-1" d="M139.8,187.4l7.77-1.19c1.8-.27,2.39-1.13,2.39-2.26,0-1.93-1.66-3.59-4.84-3.59a5.32,5.32,0,0,0-5.65,4.85l-8.77-1.79c.4-4.72,4.79-11,14.48-11,10.7,0,14.62,6,14.62,12.75v16.14a33.93,33.93,0,0,0,.39,5.12h-9.1a16.68,16.68,0,0,1-.33-3.72c-1.73,2.79-4.91,4.65-9.3,4.65-7.24,0-11.42-4.78-11.42-10C130,191.52,134.36,188.2,139.8,187.4ZM150,193.52v-1.47l-6.24,1c-2.12.33-3.72,1.33-3.72,3.65,0,1.73,1.13,3.39,3.92,3.39C146.91,200.09,150,198.63,150,193.52Z"/><path class="cls-1" d="M185.92,183.42a13.38,13.38,0,0,0-3.18-.33c-4.06,0-7.71,2.39-7.71,9v14.42H164.94v-33h9.76v4.45c1.73-3.72,5.91-4.79,8.57-4.79a9.87,9.87,0,0,1,2.65.34Z"/><path class="cls-1" d="M205.19,173.46h6.44v8.83h-6.44v12.35c0,2.73,1.46,3.46,3.65,3.46a12.74,12.74,0,0,0,2.66-.33v8.37a12.18,12.18,0,0,1-5.25.93c-6.84,0-11-4.06-11-10.63V182.29h-5.84v-8.83H191c3.45,0,5.11-2.33,5.11-5.38v-4.25h9Z"/><path class="cls-1" d="M234.22,159.38c9.3,0,14.68,5.38,14.68,12.62A10.55,10.55,0,0,1,242,182.09a11,11,0,0,1,8.37,11c0,7.7-5.85,13.35-14.75,13.35h-19V159.38Zm-1.66,18.86c3.65,0,6-1.93,6-5.12s-2.06-5-6.18-5h-5.58v10.16Zm.86,19.66c4.05,0,6.51-2.13,6.51-5.51s-2.39-5.52-6.51-5.52h-6.58v11Z"/><path class="cls-1" d="M287.42,189.93a17.54,17.54,0,0,1-35.07,0c0-10.23,7.71-17.47,17.54-17.47S287.42,179.7,287.42,189.93Zm-10.09,0c0-5.58-3.59-8.17-7.44-8.17s-7.44,2.59-7.44,8.17,3.65,8.24,7.44,8.24S277.33,195.51,277.33,189.93Z"/><path class="cls-1" d="M324.93,189.93a17.54,17.54,0,0,1-35.07,0c0-10.23,7.71-17.47,17.54-17.47S324.93,179.7,324.93,189.93Zm-10.09,0c0-5.58-3.59-8.17-7.44-8.17s-7.44,2.59-7.44,8.17,3.65,8.24,7.44,8.24S314.84,195.51,314.84,189.93Z"/><path class="cls-1" d="M348.4,187.34l13.16,19.13H349.2l-7.77-11.63-3.25,3.52v8.11h-10.1V158.38h10.1v26.17l10-11.09h13.08Z"/><path class="cls-2" d="M170.26,34.06l-42,72.82,21,36.41,42-72.82.23.39c.69-12,.1-24.7.66-36.8Z"/><path class="cls-3" d="M275.32,143.29,212.25,34.06H192.12c-.56,12.1,0,24.77-.66,36.8l41.81,72.43Z"/><polygon class="cls-4" points="170.47 34.06 191.49 70.47 212.51 34.06 170.47 34.06"/><polygon class="cls-5" points="212.51 34.06 191.49 70.47 233.53 70.47 212.51 34.06"/><polygon class="cls-6" points="191.49 70.47 212.51 106.88 233.53 70.47 191.49 70.47"/><polygon class="cls-7" points="233.53 70.47 212.51 106.88 254.55 106.88 233.53 70.47"/><polygon class="cls-8" points="212.51 106.88 233.53 143.29 254.55 106.88 212.51 106.88"/><polygon class="cls-3" points="254.55 106.88 233.53 143.29 275.58 143.29 254.55 106.88"/><polygon class="cls-9" points="149.45 70.47 191.49 70.47 170.47 34.06 149.45 70.47"/><polygon class="cls-10" points="170.47 106.88 191.49 70.47 149.45 70.47 170.47 106.88"/><polygon class="cls-11" points="128.42 106.88 170.47 106.88 149.45 70.47 128.42 106.88"/><polygon class="cls-2" points="149.45 143.29 170.47 106.88 128.42 106.88 149.45 143.29"/><polygon class="cls-12" points="191.49 100.1 170.47 136.51 212.51 136.51 191.49 100.1"/></svg>