<svg id="Layer_1" data-name="Layer 1" xmlns="http://www.w3.org/2000/svg" viewBox="0 0 500 500"><defs><style>.cls-1{fill:#a452bf;}.cls-2{fill:#60366e;}.cls-3{fill:#af7ebf;}.cls-4{fill:#2a1730;}.cls-5{fill:#381f40;}.cls-6{fill:#45274f;}.cls-7{fill:#522e5e;}.cls-8{fill:#ad74bf;}.cls-9{fill:#aa69bf;}.cls-10{fill:#a75ebf;}.cls-11{fill:#723287;}</style></defs><title>logo</title><path class="cls-1" d="M170.93,76,43.39,296.9l63.77,110.45L234.7,186.45l.68,1.19c2.1-36.5.32-74.94,2-111.64Z"/><path class="cls-2" d="M489.61,407.35,298.31,76H237.23c-1.69,36.7.09,75.14-2,111.64L362.08,407.35Z"/><polygon class="cls-3" points="171.56 76 235.32 186.45 299.09 76 171.56 76"/><polygon class="cls-4" points="299.09 76 235.32 186.45 362.86 186.45 299.09 76"/><polygon class="cls-5" points="235.32 186.45 299.09 296.9 362.86 186.45 235.32 186.45"/><polygon class="cls-6" points="362.86 186.45 299.09 296.9 426.63 296.9 362.86 186.45"/><polygon class="cls-7" points="299.09 296.9 362.86 407.35 426.63 296.9 299.09 296.9"/><polygon class="cls-2" points="426.63 296.9 362.86 407.35 490.4 407.35 426.63 296.9"/><polygon class="cls-8" points="107.79 186.45 235.32 186.45 171.56 76 107.79 186.45"/><polygon class="cls-9" points="171.56 296.9 235.32 186.45 107.79 186.45 171.56 296.9"/><polygon class="cls-10" points="44.02 296.9 171.56 296.9 107.79 186.45 44.02 296.9"/><polygon class="cls-1" points="107.79 407.35 171.56 296.9 44.02 296.9 107.79 407.35"/><polygon class="cls-11" points="235.32 276.33 171.56 386.79 299.09 386.79 235.32 276.33"/></svg>
